HIERARCHY
ROOT Hips
{
	OFFSET	0.00	0.00	0.00
	CHANNELS 6 Xposition Yposition Zposition Zrotation Xrotation Yrotation
	JOINT Spine
	{
		OFFSET	 0.00	0.01	 0.00
		CHANNELS 3 Zrotation Xrotation Yrotation
		JOINT Spine1
		{
			OFFSET	 0.00	 2.45913012437421	 0.00
			CHANNELS 3 Zrotation Xrotation Yrotation
            JOINT Neck
            {
                OFFSET	 0.00	 2.48462964506057	 0.00
                CHANNELS 3 Zrotation Xrotation Yrotation
                JOINT Head
                {
                    OFFSET	 0.00	 0.927524780924562	 0.00
                    CHANNELS 3 Zrotation Xrotation Yrotation
                    End Site 
                    {
                        OFFSET	 0.00	 1.14999962169752	 0.00
                    }
                }
            }
			JOINT LeftShoulder
			{
				OFFSET	 0.00	 2.48462964506057	 0.00
				CHANNELS 3 Zrotation Xrotation Yrotation
				JOINT LeftUpArm
				{
					OFFSET	 0.00	 1.24881979654096	 0.00
					CHANNELS 3 Zrotation Xrotation Yrotation
					JOINT LeftForeArm
					{
						OFFSET	 0.00	2.59758046908119	 0.00
						CHANNELS 3 Zrotation Xrotation Yrotation
						JOINT LeftHand
						{
							OFFSET	 0.00	2.45542024364365	 0.00
							CHANNELS 3 Zrotation Xrotation Yrotation
							JOINT LeftHandThumb 
							{
								OFFSET	 0.00	0.00	 0.00
								CHANNELS 3 Zrotation Xrotation Yrotation
								End Site
								{
									OFFSET	 0.00	0.00	1.00000003353624
								}
							}
							JOINT L_Wrist_End 
							{
								OFFSET	 0.00	0.99999967115358	 0.00
								CHANNELS 3 Zrotation Xrotation Yrotation
								End Site 
								{
									OFFSET	 0.00	 0.00	 0.00
								}
							}
						}
					}
				}
			}
			JOINT RightShoulder
			{
				OFFSET	 0.00	 2.48462964506057	 0.00
				CHANNELS 3 Zrotation Xrotation Yrotation
				JOINT RightUpArm
				{
					OFFSET	 0.00	 1.24881979654096	 0.00
					CHANNELS 3 Zrotation Xrotation Yrotation
					JOINT RightForeArm
					{
						OFFSET	 0.00	2.59758046908119	 0.00
						CHANNELS 3 Zrotation Xrotation Yrotation
						JOINT RightHand
						{
							OFFSET	 0.00	2.45542024364365	 0.00
							CHANNELS 3 Zrotation Xrotation Yrotation
							JOINT RightHandThumb 
							{
								OFFSET	 0.00	0.00	 0.00
								CHANNELS 3 Zrotation Xrotation Yrotation
								End Site
								{
									OFFSET	 0.00	0.00	1.00000003353624
								}
							}
							JOINT R_Wrist_End 
							{
								OFFSET	 0.00	0.99999967115358	 0.00
								CHANNELS 3 Zrotation Xrotation Yrotation
								End Site 
								{
									OFFSET	 0.00	 0.00	 0.00
								}
							}
						}
					}
				}
			}
		}
	}
	JOINT LeftUpLeg
	{
		OFFSET	 1.2719394002717	 0.00	 0.00
		CHANNELS 3 Zrotation Xrotation Yrotation
		JOINT LeftLowLeg
		{
			OFFSET	 0.00	-4.3429100912261	 0.00
			CHANNELS 3 Zrotation Xrotation Yrotation
			JOINT LeftFoot
			{
				OFFSET	 0.00	-4.48767017425826	 0.00
				CHANNELS 3 Zrotation Xrotation Yrotation
				JOINT LeftToeBase
                {
                    OFFSET	 0.00	0.00	 1.51507020887566
                    CHANNELS 3 Zrotation Xrotation Yrotation
                    End Site 
                    {
                        OFFSET	 0.00	0.00	 0.75000010571191
                    }
                }
			}
		}
	}
	JOINT RightUpLeg
	{
		OFFSET	 -1.2719393604653	 0.00	 0.00
		CHANNELS 3 Zrotation Xrotation Yrotation
		JOINT RightLowLeg
		{
			OFFSET	 0.00	-4.3429100912261	 0.00
			CHANNELS 3 Zrotation Xrotation Yrotation
			JOINT RightFoot
			{
				OFFSET	 0.00	-4.48767017425826	 0.00
				CHANNELS 3 Zrotation Xrotation Yrotation
				JOINT RightToeBase
                {
                    OFFSET	 0.00	0.00	 1.51507020887566
                    CHANNELS 3 Zrotation Xrotation Yrotation
                    End Site 
                    {
                        OFFSET	 0.00	0.00	 0.749999965609858
                    }
                }   
			}
		}
	}
}
MOTION 
Frames:	6 
Frame Time: 0.02 
 -2.300010070800781 1.0469400024414062 9.349810180664063 -156.609 75.1793 166.759 7.3716 -26.1037 1.24305 -5.68213 9.52142 1.25338 8.69946 35.2666 0.94548 -33.7463 -73.8194 -21.275 -117.221 -2.64569 6.85653 -44.6144 -4.01911 -364.515 0.0 3.22501 0.0 10.3346 -9.29043 28.3102 0.0 0.0 0.0 0.0 0.0 0.0 120.417404 -5.69596 -4.35215 44.6608 -2.78388 -358.088 0.0 3.88784 0.0 -1.43465 -7.05583 -9.73616 0.0 0.0 0.0 0.0 0.0 0.0 0.202578 -10.5011 -23.5457 0.0 6.36223 0.0 -0.294193 -4.7756004 21.9218 0.0 -11.17819 0.0 9.51909 -9.85868 389.556 0.0 5.28516 0.0 5.21861 0.51640034 -30.2615 0.0 -17.96798 0.0 
  -2.3058900451660156 1.0422699737548828 9.350339965820313 -156.711 75.1441 166.958 7.31844 -26.036 1.20344 -5.50273 9.56572 1.2786 8.31944 35.2542 1.32167 -34.1271 -73.8367 -21.6874 -117.034 -2.88158 6.76816 -45.077 -5.23563 -364.968 0.0 2.8926 0.0 10.0117 -9.87727 27.6204 0.0 0.0 0.0 0.0 0.0 0.0 120.1792 -5.87209 -4.25397 44.8988 -3.53518 -357.712 0.0 3.23001 0.0 -1.51484 -7.01377 -10.1634 0.0 0.0 0.0 0.0 0.0 0.0 0.186653 -10.5669 -23.5322 0.0 6.42967 0.0 -0.242142 -4.745701 21.888 0.0 -11.18292 0.0 9.52132 -9.86498 389.545 0.0 5.25812 0.0 5.18183 0.5274 -30.3436 0.0 -17.983059 0.0 
  -2.313179931640625 1.0353600311279296 9.35093994140625 -156.84 75.0925 167.182 7.1922 -26.0456 1.09444 -5.23158 9.60105 1.31164 7.86842 35.3426 1.75164 -34.5519 -73.7914 -22.1223 -116.8344 -3.15807 6.62724 -45.5659 -6.29571 -365.708 0.0 2.56171 0.0 9.60848 -9.97962 27.6449 0.0 0.0 0.0 0.0 0.0 0.0 119.8924 -5.98226 -4.2403 45.1242 -4.18688 -357.418 0.0 2.63827 0.0 -1.46784 -7.32321 -10.4437 0.0 0.0 0.0 0.0 0.0 0.0 0.186568 -10.6277 -23.4389 0.0 6.46823 0.0 -0.175874 -4.6989994 21.7937 0.0 -11.23171 0.0 9.53175 -9.86987 389.578 0.0 5.22162 0.0 5.13107 0.53779984 -30.4696 0.0 -17.9847 0.0 
  -2.3193499755859377 1.0336799621582031 9.351699829101562 -156.842 75.1175 167.353 7.12681 -25.9662 1.02519 -5.04494 9.6892 1.31743 7.53579 35.3643 2.03326 -35.0027 -73.7634 -22.5178 -116.6814 -3.31632 6.46081 -45.9963 -7.22295 -366.155 0.0 2.44646 0.0 9.57991 -10.0857 28.0681 0.0 0.0 0.0 0.0 0.0 0.0 119.6653 -6.01865 -4.15712 45.3187 -4.75157 -357.102 0.0 2.00222 0.0 -1.45524 -7.48122 -10.9609 0.0 0.0 0.0 0.0 0.0 0.0 0.158515 -10.6821 -23.5349 0.0 6.58662 0.0 -0.157811 -4.6737003 21.7745 0.0 -11.24241 0.0 9.52814 -9.83901 389.44 0.0 5.20672 0.0 5.12132 0.54209995 -30.4827 0.0 -17.99126 0.0 
  -2.3263299560546873 1.0316999816894532 9.3514501953125 -156.828 75.1618 167.497 7.35187 -25.4847 1.37015 -5.32183 9.01627 1.33893 7.63757 35.827 1.93571 -35.3642 -73.7981 -22.8599 -116.2962 -3.33937 6.79008 -46.3713 -7.90951 -366.487 0.0 2.24547 0.0 9.6117 -9.89501 28.1844 0.0 0.0 0.0 0.0 0.0 0.0 119.739 -6.45693 -4.34353 45.4109 -5.16791 -356.606 0.0 1.44858 0.0 -1.29666 -7.83866 -11.4065 0.0 0.0 0.0 0.0 0.0 0.0 0.144464 -10.7065 -23.5669 0.0 6.68733 0.0 -0.168397 -4.6865997 21.6917 0.0 -11.23924 0.0 9.53085 -9.77908 389.276 0.0 5.17232 0.0 5.06851 0.5515003 -30.4941 0.0 -17.99139 0.0 
  -2.333059997558594 1.0308100128173827 9.352059936523437 -156.819 75.2232 167.658 7.34667 -25.4308 1.35198 -5.2396 9.15218 1.34284 7.40381 35.8418 2.10984 -35.5945 -73.7106 -22.9744 -116.1753 -3.4875 6.58937 -46.6627 -8.3629 -366.555 0.0 2.1146 0.0 9.62306 -9.82172 27.7963 0.0 0.0 0.0 0.0 0.0 0.0 119.641 -6.42963 -4.34274 45.4683 -5.45927 -356.287 0.0 0.883906 0.0 -1.21183 -7.93651 -12.1305 0.0 0.0 0.0 0.0 0.0 0.0 0.122099 -10.7194 -23.6102 0.0 6.77805 0.0 -0.161214 -4.6473007 21.6165 0.0 -11.26181 0.0 9.52302 -9.70771 389.125 0.0 5.13411 0.0 5.04756 0.5649996 -30.5216 0.0 -17.96845 0.0 
